<svg width="58" height="68" viewBox="0 0 58 68" fill="none" xmlns="http://www.w3.org/2000/svg">
<path d="M33.1743 0.666016C33.9993 0.666016 34.6924 1.36602 34.6924 2.19935V12.9327C34.6924 19.0327 39.6429 24.0327 45.7155 24.066C48.1908 24.066 50.171 24.0993 51.6891 24.0993C52.7122 24.0993 54.3954 24.066 55.8145 24.066C56.6396 24.066 57.3327 24.7327 57.3327 25.566V52.366C57.3327 60.6327 50.666 67.3327 42.4812 67.3327H16.2436C7.62971 67.3327 0.666016 60.2993 0.666016 51.6327V15.6993C0.666016 7.43268 7.29968 0.666016 15.5505 0.666016H33.1743ZM27.7947 23.1327C27.4647 23.1327 27.1347 23.1993 26.8376 23.3327C26.5406 23.466 26.2766 23.6327 26.0456 23.866L16.6066 33.466C15.6495 34.4327 15.6495 35.9993 16.6066 36.966C17.5637 37.9327 19.1149 37.9327 20.072 36.966L25.3195 31.6327V47.7327C25.3195 49.0993 26.4086 50.1993 27.7947 50.1993C29.1479 50.1993 30.237 49.0993 30.237 47.7327V31.6327L35.4845 36.966C36.4416 37.9327 37.9927 37.9327 38.9498 36.966C39.9399 35.9993 39.9399 34.4327 38.9828 33.466L29.5109 23.866C29.2799 23.6327 29.0159 23.466 28.7188 23.3327C28.4218 23.1993 28.1248 23.1327 27.7947 23.1327ZM39.4835 3.68602C39.4835 2.24935 41.2063 1.53602 42.1931 2.57268C45.764 6.31935 51.9984 12.8693 55.4835 16.5293C56.4439 17.5393 55.7376 19.216 54.3482 19.2193C51.6353 19.2293 48.4406 19.2193 46.1403 19.196C42.4901 19.196 39.4835 16.1593 39.4835 12.4727V3.68602Z" fill="#006DBC"/>
</svg>
